<svg xmlns="http://www.w3.org/2000/svg" width="320" height="200" viewBox="0 0 320 200">
  <defs>
    <clipPath id="clip"><rect x="12" y="12" width="296" height="176" rx="18"/></clipPath>
    <filter id="grain"><feTurbulence baseFrequency=".85" numOctaves="3"/><feColorMatrix type="saturate" values="0"/><feComponentTransfer><feFuncA type="table" tableValues="0 .16"/></feComponentTransfer></filter>
  </defs>
  <rect width="320" height="200" fill="#fffdf4"/>
  <g clip-path="url(#clip)">
    <image href="../seno-gallery-4.jpg" x="0" y="0" width="320" height="200" preserveAspectRatio="xMidYMid slice" opacity=".34"/>
    <rect width="320" height="200" fill="#fff7df" opacity=".76"/>
    <circle cx="144" cy="154" r="18" fill="#d23553" opacity="0.16"/><circle cx="197" cy="47" r="21" fill="#d23553" opacity="0.16"/><circle cx="250" cy="88" r="24" fill="#d23553" opacity="0.16"/><circle cx="55" cy="129" r="27" fill="#d23553" opacity="0.16"/><circle cx="108" cy="170" r="30" fill="#d23553" opacity="0.16"/>
    <ellipse cx="210" cy="48" rx="13" ry="9" fill="#6b351f" transform="rotate(330 210 48)"/><ellipse cx="228" cy="78" rx="13" ry="9" fill="#354f2f" transform="rotate(341 228 78)"/><ellipse cx="246" cy="108" rx="13" ry="9" fill="#5c3b84" transform="rotate(352 246 108)"/><ellipse cx="264" cy="48" rx="13" ry="9" fill="#1b6b77" transform="rotate(363 264 48)"/>
    <rect width="320" height="200" filter="url(#grain)"/>
  </g>
  <rect x="12" y="12" width="296" height="176" rx="18" fill="none" stroke="#d23553" stroke-width="4"/>
  <text x="28" y="54" font-family="Inter, Arial, sans-serif" font-size="42" font-weight="900" fill="#d23553">30</text>
  <text x="28" y="82" font-family="Inter, Arial, sans-serif" font-size="13" font-weight="900" letter-spacing="1.4" fill="#1d1823">SENO EVIDENCE</text>
  <text x="28" y="154" font-family="Inter, Arial, sans-serif" font-size="20" font-weight="900" fill="#1d1823">V4 WITNESS</text>
</svg>