<svg xmlns="http://www.w3.org/2000/svg" width="320" height="200" viewBox="0 0 320 200">
  <defs>
    <clipPath id="clip"><rect x="12" y="12" width="296" height="176" rx="18"/></clipPath>
    <filter id="grain"><feTurbulence baseFrequency=".85" numOctaves="3"/><feColorMatrix type="saturate" values="0"/><feComponentTransfer><feFuncA type="table" tableValues="0 .16"/></feComponentTransfer></filter>
  </defs>
  <rect width="320" height="200" fill="#fffdf4"/>
  <g clip-path="url(#clip)">
    <image href="../seno-1.jpg" x="0" y="0" width="320" height="200" preserveAspectRatio="xMidYMid slice" opacity=".34"/>
    <rect width="320" height="200" fill="#fff7df" opacity=".76"/>
    <circle cx="181" cy="35" r="19" fill="#6b351f" opacity="0.16"/><circle cx="234" cy="76" r="22" fill="#6b351f" opacity="0.16"/><circle cx="39" cy="117" r="25" fill="#6b351f" opacity="0.16"/><circle cx="92" cy="158" r="28" fill="#6b351f" opacity="0.16"/><circle cx="145" cy="51" r="31" fill="#6b351f" opacity="0.16"/>
    <ellipse cx="210" cy="48" rx="13" ry="9" fill="#354f2f" transform="rotate(341 210 48)"/><ellipse cx="228" cy="78" rx="13" ry="9" fill="#5c3b84" transform="rotate(352 228 78)"/><ellipse cx="246" cy="108" rx="13" ry="9" fill="#1b6b77" transform="rotate(363 246 108)"/><ellipse cx="264" cy="48" rx="13" ry="9" fill="#8a4f12" transform="rotate(374 264 48)"/>
    <rect width="320" height="200" filter="url(#grain)"/>
  </g>
  <rect x="12" y="12" width="296" height="176" rx="18" fill="none" stroke="#6b351f" stroke-width="4"/>
  <text x="28" y="54" font-family="Inter, Arial, sans-serif" font-size="42" font-weight="900" fill="#6b351f">31</text>
  <text x="28" y="82" font-family="Inter, Arial, sans-serif" font-size="13" font-weight="900" letter-spacing="1.4" fill="#1d1823">SENO EVIDENCE</text>
  <text x="28" y="154" font-family="Inter, Arial, sans-serif" font-size="20" font-weight="900" fill="#1d1823">V5 WITNESS</text>
</svg>