<svg xmlns="http://www.w3.org/2000/svg" width="320" height="200" viewBox="0 0 320 200">
  <defs>
    <clipPath id="clip"><rect x="12" y="12" width="296" height="176" rx="18"/></clipPath>
    <filter id="grain"><feTurbulence baseFrequency=".85" numOctaves="3"/><feColorMatrix type="saturate" values="0"/><feComponentTransfer><feFuncA type="table" tableValues="0 .16"/></feComponentTransfer></filter>
  </defs>
  <rect width="320" height="200" fill="#fffdf4"/>
  <g clip-path="url(#clip)">
    <image href="../seno-3.jpg" x="0" y="0" width="320" height="200" preserveAspectRatio="xMidYMid slice" opacity=".34"/>
    <rect width="320" height="200" fill="#fff7df" opacity=".76"/>
    <circle cx="255" cy="93" r="21" fill="#5c3b84" opacity="0.16"/><circle cx="60" cy="134" r="24" fill="#5c3b84" opacity="0.16"/><circle cx="113" cy="27" r="27" fill="#5c3b84" opacity="0.16"/><circle cx="166" cy="68" r="30" fill="#5c3b84" opacity="0.16"/><circle cx="219" cy="109" r="11" fill="#5c3b84" opacity="0.16"/>
    <ellipse cx="210" cy="48" rx="13" ry="9" fill="#1b6b77" transform="rotate(363 210 48)"/><ellipse cx="228" cy="78" rx="13" ry="9" fill="#8a4f12" transform="rotate(374 228 78)"/><ellipse cx="246" cy="108" rx="13" ry="9" fill="#193a8a" transform="rotate(385 246 108)"/><ellipse cx="264" cy="48" rx="13" ry="9" fill="#d23553" transform="rotate(396 264 48)"/>
    <rect width="320" height="200" filter="url(#grain)"/>
  </g>
  <rect x="12" y="12" width="296" height="176" rx="18" fill="none" stroke="#5c3b84" stroke-width="4"/>
  <text x="28" y="54" font-family="Inter, Arial, sans-serif" font-size="42" font-weight="900" fill="#5c3b84">33</text>
  <text x="28" y="82" font-family="Inter, Arial, sans-serif" font-size="13" font-weight="900" letter-spacing="1.4" fill="#1d1823">SENO EVIDENCE</text>
  <text x="28" y="154" font-family="Inter, Arial, sans-serif" font-size="20" font-weight="900" fill="#1d1823">V7 WITNESS</text>
</svg>